HIERARCHY
ROOT Hips
{
  OFFSET 0 0 0
  CHANNELS 6 Xposition Yposition Zposition Zrotation Yrotation Xrotation
  JOINT LeftThigh
  {
    OFFSET 8.409438 0 -5.917753
    CHANNELS 3 Zrotation Yrotation Xrotation
    JOINT LeftLeg
    {
      OFFSET 0 0 -42.358652
      CHANNELS 3 Zrotation Yrotation Xrotation
      JOINT LeftFoot
      {
        OFFSET 0 0 -39.357303
        CHANNELS 3 Zrotation Yrotation Xrotation
      }
    }
  }
  JOINT RightThigh
  {
    OFFSET -8.409438 0 -5.917753
    CHANNELS 3 Zrotation Yrotation Xrotation
    JOINT RightLeg
    {
      OFFSET 0 0 -42.358652
      CHANNELS 3 Zrotation Yrotation Xrotation
      JOINT RightFoot
      {
        OFFSET 0 0 -39.357303
        CHANNELS 3 Zrotation Yrotation Xrotation
      }
    }
  }
  JOINT SpineLow
  {
    OFFSET 0 0 4.719101
    CHANNELS 3 Zrotation Yrotation Xrotation
    JOINT SpineMid
    {
      OFFSET 0 0 12.899191
      CHANNELS 3 Zrotation Yrotation Xrotation
      JOINT Chest
      {
        OFFSET 0 0 12.899191
        CHANNELS 3 Zrotation Yrotation Xrotation
        JOINT LeftShoulder
        {
          OFFSET 7.550562 1.41573 9.438202
          CHANNELS 3 Zrotation Yrotation Xrotation
          JOINT LeftArm
          {
            OFFSET 9.155056 0 4.247191
            CHANNELS 3 Zrotation Yrotation Xrotation
            JOINT LeftForearm
            {
              OFFSET 0 0 25.771955
              CHANNELS 3 Zrotation Yrotation Xrotation
              JOINT LeftHand
              {
                OFFSET 0 0 25.197169
                CHANNELS 3 Zrotation Yrotation Xrotation
              }
            }
          }
        }
        JOINT RightShoulder
        {
          OFFSET -7.550562 1.41573 9.438202
          CHANNELS 3 Zrotation Yrotation Xrotation
          JOINT RightArm
          {
            OFFSET -9.155056 0 4.247191
            CHANNELS 3 Zrotation Yrotation Xrotation
            JOINT RightForearm
            {
              OFFSET 0 0 -25.771955
              CHANNELS 3 Zrotation Yrotation Xrotation
              JOINT RightHand
              {
                OFFSET 0 0 -25.197169
                CHANNELS 3 Zrotation Yrotation Xrotation
              }
            }
          }
        }
        JOINT Neck
        {
          OFFSET 0 0 15.101124
          CHANNELS 3 Zrotation Yrotation Xrotation
          JOINT Head
          {
            OFFSET 0 0 11.325843
            CHANNELS 3 Zrotation Yrotation Xrotation
            End Site
            {
              OFFSET 0 0 14.157303
            }
          }
        }
      }
    }
  }
}
MOTION
Frames: 5
Frame Time: 0.0
0.0  101.685394  0.0  4.775903  12.704098  -98.050913  36.498462  -22.416189  25.852769  -2.111005  3.63635  29.08775  -19.009717  -7.588835  -11.383432  -12.120507  -0.552816  -36.31784  -3.931296  17.359385  48.014325  25.557445  2.195753  4.77152  -2.486721  1.046367  2.684592  -6.675997  3.128434  7.226487  -6.675997  3.128434  7.226487  -16.345479  30.740145  2.249782  131.040095  72.279997  -169.182884  -40.419187  -34.264061  84.668053  40.049398  -27.248895  6.567273  13.202437  -6.890906  13.760978  78.613363  28.547165  24.838139  -33.527976  18.170729  -98.407428  72.608489  19.104465  15.476345  -2.130379  -3.312045  -6.111536  -1.630686  -2.463064  -4.593996  
0.0  101.685394  0.0  4.49242  12.388931  -98.2611  35.974463  -22.310793  26.172942  -1.770843  3.449516  29.128346  -18.699839  -7.832316  -11.006263  -12.089985  -1.170999  -35.21444  -3.737571  17.54592  47.491436  26.096642  2.327277  4.547095  -2.594617  0.980369  2.615605  -6.980819  2.952952  7.03915  -6.98082  2.952952  7.03915  -16.26411  30.818996  2.287058  131.33069  71.885729  -168.64162  -40.373422  -34.748315  84.78019  40.340776  -27.37339  5.613384  12.899134  -6.700471  14.196231  78.332419  27.554577  24.815791  -33.276621  18.225031  -98.629636  72.89468  19.084815  14.787255  -1.96137  -3.259274  -5.820491  -1.501863  -2.426072  -4.374712  
0.0  101.685394  0.0  4.154224  11.837373  -98.598345  35.589484  -22.326445  26.423985  -1.712642  3.492621  29.374662  -18.069616  -8.186437  -10.513712  -11.359436  -1.587546  -33.773407  -4.260935  17.833399  46.562329  25.536155  2.34571  3.951963  -2.693892  0.906899  2.566946  -7.261554  2.757808  6.909151  -7.261555  2.757808  6.909151  -16.084478  30.77537  2.275044  131.933267  71.342508  -167.870518  -40.441303  -35.079111  85.124292  40.57155  -27.506427  4.751294  12.797186  -6.508701  14.654071  77.958337  26.619827  24.910641  -33.160268  18.428432  -98.996259  73.178336  18.893001  14.176855  -1.680179  -3.172827  -5.556841  -1.288814  -2.364601  -4.175332  
0.0  101.685394  0.0  3.828744  11.3162  -98.902279  35.224152  -22.351147  26.471894  -1.960438  3.655243  29.879432  -17.167877  -8.578459  -9.930971  -10.791135  -2.303527  -32.637408  -4.12387  18.035363  45.947752  26.027347  2.398633  3.991385  -2.810889  0.824305  2.519226  -7.591258  2.539304  6.782637  -7.591258  2.539304  6.782637  -15.944822  30.699212  2.206082  132.707229  70.776121  -167.030854  -40.638297  -35.053921  85.709085  40.681843  -27.556036  4.042202  12.651834  -6.325545  15.068886  77.535963  25.804464  25.148954  -32.993626  18.74605  -99.406002  73.383736  18.741766  13.614669  -1.355941  -3.04353  -5.34454  -1.04345  -2.271012  -4.014243  
0.0  101.685394  0.0  3.52147  10.698747  -99.250546  34.958051  -22.383667  26.345382  -2.369813  3.871575  30.76853  -16.012878  -8.995458  -9.307792  -10.132004  -2.937289  -31.514854  -3.704672  17.819605  45.31059  26.035818  2.348961  4.199015  -2.915069  0.738206  2.478669  -7.885711  2.310377  6.677428  -7.885711  2.310377  6.677428  -15.842289  30.604753  2.159164  133.373191  70.19769  -166.376046  -41.086815  -34.717318  86.433951  40.831796  -27.578719  3.461387  12.492641  -6.143696  15.435235  77.11176  25.040442  25.523624  -32.921018  19.116552  -99.877996  73.53758  18.693321  13.180329  -1.028041  -2.896736  -5.149854  -0.795362  -2.164081  -3.866456  
